<mxfile host="app.diagrams.net" modified="2023-10-25T23:43:01.743Z" agent="Mozilla/5.0 (Windows NT 10.0; Win64; x64) AppleWebKit/537.36 (KHTML, like Gecko) Chrome/118.0.0.0 Safari/537.36" etag="aG9n6l7Tt95Keyzb4ZcY" version="22.0.8" type="github">
  <diagram name="Page-1" id="BWEenAlL7XMNGgVWSUkG">
    <mxGraphModel dx="1050" dy="553" grid="1" gridSize="10" guides="1" tooltips="1" connect="1" arrows="1" fold="1" page="1" pageScale="1" pageWidth="850" pageHeight="1100" math="0" shadow="0">
      <root>
        <mxCell id="0" />
        <mxCell id="1" parent="0" />
        <mxCell id="fZJgPTSE8Sw2T9mLNg8I-21" style="edgeStyle=orthogonalEdgeStyle;rounded=0;orthogonalLoop=1;jettySize=auto;html=1;entryX=0;entryY=0.5;entryDx=0;entryDy=0;" edge="1" parent="1" source="fZJgPTSE8Sw2T9mLNg8I-2" target="fZJgPTSE8Sw2T9mLNg8I-9">
          <mxGeometry relative="1" as="geometry">
            <Array as="points">
              <mxPoint x="160" y="270" />
            </Array>
          </mxGeometry>
        </mxCell>
        <mxCell id="fZJgPTSE8Sw2T9mLNg8I-25" style="edgeStyle=orthogonalEdgeStyle;rounded=0;orthogonalLoop=1;jettySize=auto;html=1;entryX=0.5;entryY=1;entryDx=0;entryDy=0;" edge="1" parent="1" source="fZJgPTSE8Sw2T9mLNg8I-2" target="fZJgPTSE8Sw2T9mLNg8I-7">
          <mxGeometry relative="1" as="geometry" />
        </mxCell>
        <mxCell id="fZJgPTSE8Sw2T9mLNg8I-26" style="edgeStyle=orthogonalEdgeStyle;rounded=0;orthogonalLoop=1;jettySize=auto;html=1;" edge="1" parent="1" source="fZJgPTSE8Sw2T9mLNg8I-2" target="fZJgPTSE8Sw2T9mLNg8I-8">
          <mxGeometry relative="1" as="geometry">
            <Array as="points">
              <mxPoint x="100" y="550" />
              <mxPoint x="325" y="550" />
              <mxPoint x="325" y="400" />
            </Array>
          </mxGeometry>
        </mxCell>
        <mxCell id="fZJgPTSE8Sw2T9mLNg8I-2" value="product" style="rounded=0;whiteSpace=wrap;html=1;" vertex="1" parent="1">
          <mxGeometry x="60" y="340" width="120" height="50" as="geometry" />
        </mxCell>
        <mxCell id="fZJgPTSE8Sw2T9mLNg8I-13" style="edgeStyle=orthogonalEdgeStyle;rounded=0;orthogonalLoop=1;jettySize=auto;html=1;entryX=0.5;entryY=0;entryDx=0;entryDy=0;" edge="1" parent="1" source="fZJgPTSE8Sw2T9mLNg8I-3" target="fZJgPTSE8Sw2T9mLNg8I-6">
          <mxGeometry relative="1" as="geometry" />
        </mxCell>
        <mxCell id="fZJgPTSE8Sw2T9mLNg8I-3" value="product" style="rounded=0;whiteSpace=wrap;html=1;" vertex="1" parent="1">
          <mxGeometry x="610" y="50" width="120" height="60" as="geometry" />
        </mxCell>
        <mxCell id="fZJgPTSE8Sw2T9mLNg8I-31" style="edgeStyle=orthogonalEdgeStyle;rounded=0;orthogonalLoop=1;jettySize=auto;html=1;" edge="1" parent="1" source="fZJgPTSE8Sw2T9mLNg8I-4" target="fZJgPTSE8Sw2T9mLNg8I-8">
          <mxGeometry relative="1" as="geometry">
            <Array as="points">
              <mxPoint x="410" y="365" />
              <mxPoint x="410" y="380" />
            </Array>
          </mxGeometry>
        </mxCell>
        <mxCell id="fZJgPTSE8Sw2T9mLNg8I-4" value="order" style="rounded=0;whiteSpace=wrap;html=1;" vertex="1" parent="1">
          <mxGeometry x="250" y="340" width="100" height="50" as="geometry" />
        </mxCell>
        <mxCell id="fZJgPTSE8Sw2T9mLNg8I-5" value="ordering details" style="rounded=0;whiteSpace=wrap;html=1;" vertex="1" parent="1">
          <mxGeometry x="690" y="430" width="120" height="60" as="geometry" />
        </mxCell>
        <mxCell id="fZJgPTSE8Sw2T9mLNg8I-14" style="edgeStyle=orthogonalEdgeStyle;rounded=0;orthogonalLoop=1;jettySize=auto;html=1;entryX=0.5;entryY=1;entryDx=0;entryDy=0;" edge="1" parent="1" source="fZJgPTSE8Sw2T9mLNg8I-6" target="fZJgPTSE8Sw2T9mLNg8I-3">
          <mxGeometry relative="1" as="geometry" />
        </mxCell>
        <mxCell id="fZJgPTSE8Sw2T9mLNg8I-15" style="edgeStyle=orthogonalEdgeStyle;rounded=0;orthogonalLoop=1;jettySize=auto;html=1;entryX=0;entryY=0.5;entryDx=0;entryDy=0;" edge="1" parent="1" source="fZJgPTSE8Sw2T9mLNg8I-6" target="fZJgPTSE8Sw2T9mLNg8I-2">
          <mxGeometry relative="1" as="geometry" />
        </mxCell>
        <mxCell id="fZJgPTSE8Sw2T9mLNg8I-6" value="4.1 shopping cart" style="ellipse;whiteSpace=wrap;html=1;" vertex="1" parent="1">
          <mxGeometry x="330" y="108" width="125" height="80" as="geometry" />
        </mxCell>
        <mxCell id="fZJgPTSE8Sw2T9mLNg8I-7" value="4.3 Delivery data" style="ellipse;whiteSpace=wrap;html=1;" vertex="1" parent="1">
          <mxGeometry x="180" y="420" width="120" height="80" as="geometry" />
        </mxCell>
        <mxCell id="fZJgPTSE8Sw2T9mLNg8I-17" style="edgeStyle=orthogonalEdgeStyle;rounded=0;orthogonalLoop=1;jettySize=auto;html=1;" edge="1" parent="1" source="fZJgPTSE8Sw2T9mLNg8I-8" target="fZJgPTSE8Sw2T9mLNg8I-6">
          <mxGeometry relative="1" as="geometry">
            <mxPoint x="30" y="546" as="targetPoint" />
            <Array as="points">
              <mxPoint x="530" y="570" />
              <mxPoint x="10" y="570" />
              <mxPoint x="10" y="110" />
            </Array>
          </mxGeometry>
        </mxCell>
        <mxCell id="fZJgPTSE8Sw2T9mLNg8I-27" style="edgeStyle=orthogonalEdgeStyle;rounded=0;orthogonalLoop=1;jettySize=auto;html=1;entryX=0;entryY=0.25;entryDx=0;entryDy=0;" edge="1" parent="1" source="fZJgPTSE8Sw2T9mLNg8I-8" target="fZJgPTSE8Sw2T9mLNg8I-12">
          <mxGeometry relative="1" as="geometry" />
        </mxCell>
        <mxCell id="fZJgPTSE8Sw2T9mLNg8I-30" style="edgeStyle=orthogonalEdgeStyle;rounded=0;orthogonalLoop=1;jettySize=auto;html=1;entryX=0.5;entryY=1;entryDx=0;entryDy=0;" edge="1" parent="1" source="fZJgPTSE8Sw2T9mLNg8I-8" target="fZJgPTSE8Sw2T9mLNg8I-5">
          <mxGeometry relative="1" as="geometry">
            <Array as="points">
              <mxPoint x="560" y="510" />
              <mxPoint x="750" y="510" />
            </Array>
          </mxGeometry>
        </mxCell>
        <mxCell id="fZJgPTSE8Sw2T9mLNg8I-32" style="edgeStyle=orthogonalEdgeStyle;rounded=0;orthogonalLoop=1;jettySize=auto;html=1;" edge="1" parent="1" source="fZJgPTSE8Sw2T9mLNg8I-8" target="fZJgPTSE8Sw2T9mLNg8I-4">
          <mxGeometry relative="1" as="geometry">
            <Array as="points">
              <mxPoint x="530" y="340" />
            </Array>
          </mxGeometry>
        </mxCell>
        <mxCell id="fZJgPTSE8Sw2T9mLNg8I-8" value="4.4 Check out" style="ellipse;whiteSpace=wrap;html=1;" vertex="1" parent="1">
          <mxGeometry x="470" y="360" width="120" height="80" as="geometry" />
        </mxCell>
        <mxCell id="fZJgPTSE8Sw2T9mLNg8I-22" style="edgeStyle=orthogonalEdgeStyle;rounded=0;orthogonalLoop=1;jettySize=auto;html=1;entryX=1;entryY=0.75;entryDx=0;entryDy=0;" edge="1" parent="1" source="fZJgPTSE8Sw2T9mLNg8I-9" target="fZJgPTSE8Sw2T9mLNg8I-2">
          <mxGeometry relative="1" as="geometry">
            <Array as="points">
              <mxPoint x="240" y="300" />
              <mxPoint x="240" y="378" />
            </Array>
          </mxGeometry>
        </mxCell>
        <mxCell id="fZJgPTSE8Sw2T9mLNg8I-9" value="4.2 change order" style="ellipse;whiteSpace=wrap;html=1;" vertex="1" parent="1">
          <mxGeometry x="335" y="230" width="120" height="80" as="geometry" />
        </mxCell>
        <mxCell id="fZJgPTSE8Sw2T9mLNg8I-28" style="edgeStyle=orthogonalEdgeStyle;rounded=0;orthogonalLoop=1;jettySize=auto;html=1;" edge="1" parent="1" source="fZJgPTSE8Sw2T9mLNg8I-12" target="fZJgPTSE8Sw2T9mLNg8I-8">
          <mxGeometry relative="1" as="geometry">
            <Array as="points">
              <mxPoint x="720" y="250" />
              <mxPoint x="530" y="250" />
            </Array>
          </mxGeometry>
        </mxCell>
        <mxCell id="fZJgPTSE8Sw2T9mLNg8I-12" value="order" style="rounded=0;whiteSpace=wrap;html=1;" vertex="1" parent="1">
          <mxGeometry x="660" y="270" width="120" height="60" as="geometry" />
        </mxCell>
        <mxCell id="fZJgPTSE8Sw2T9mLNg8I-16" style="edgeStyle=orthogonalEdgeStyle;rounded=0;orthogonalLoop=1;jettySize=auto;html=1;entryX=0.978;entryY=0.742;entryDx=0;entryDy=0;entryPerimeter=0;" edge="1" parent="1" source="fZJgPTSE8Sw2T9mLNg8I-6" target="fZJgPTSE8Sw2T9mLNg8I-9">
          <mxGeometry relative="1" as="geometry">
            <Array as="points">
              <mxPoint x="395" y="209" />
              <mxPoint x="480" y="209" />
              <mxPoint x="480" y="289" />
            </Array>
          </mxGeometry>
        </mxCell>
        <mxCell id="fZJgPTSE8Sw2T9mLNg8I-29" style="edgeStyle=orthogonalEdgeStyle;rounded=0;orthogonalLoop=1;jettySize=auto;html=1;entryX=0.787;entryY=0.947;entryDx=0;entryDy=0;entryPerimeter=0;" edge="1" parent="1" source="fZJgPTSE8Sw2T9mLNg8I-5" target="fZJgPTSE8Sw2T9mLNg8I-8">
          <mxGeometry relative="1" as="geometry">
            <Array as="points">
              <mxPoint x="640" y="460" />
              <mxPoint x="640" y="436" />
            </Array>
          </mxGeometry>
        </mxCell>
        <mxCell id="fZJgPTSE8Sw2T9mLNg8I-33" style="edgeStyle=orthogonalEdgeStyle;rounded=0;orthogonalLoop=1;jettySize=auto;html=1;entryX=0.187;entryY=0.938;entryDx=0;entryDy=0;entryPerimeter=0;" edge="1" parent="1" source="fZJgPTSE8Sw2T9mLNg8I-7" target="fZJgPTSE8Sw2T9mLNg8I-8">
          <mxGeometry relative="1" as="geometry" />
        </mxCell>
        <mxCell id="fZJgPTSE8Sw2T9mLNg8I-34" value="Product information" style="text;html=1;align=center;verticalAlign=middle;resizable=0;points=[];autosize=1;strokeColor=none;fillColor=none;" vertex="1" parent="1">
          <mxGeometry x="445" y="38" width="130" height="30" as="geometry" />
        </mxCell>
        <mxCell id="fZJgPTSE8Sw2T9mLNg8I-35" value="Product information" style="text;html=1;align=center;verticalAlign=middle;resizable=0;points=[];autosize=1;strokeColor=none;fillColor=none;" vertex="1" parent="1">
          <mxGeometry x="105" y="78" width="130" height="30" as="geometry" />
        </mxCell>
        <mxCell id="fZJgPTSE8Sw2T9mLNg8I-36" value="Data product" style="text;html=1;align=center;verticalAlign=middle;resizable=0;points=[];autosize=1;strokeColor=none;fillColor=none;" vertex="1" parent="1">
          <mxGeometry x="525" y="158" width="90" height="30" as="geometry" />
        </mxCell>
        <mxCell id="fZJgPTSE8Sw2T9mLNg8I-37" value="Product data order" style="text;html=1;align=center;verticalAlign=middle;resizable=0;points=[];autosize=1;strokeColor=none;fillColor=none;" vertex="1" parent="1">
          <mxGeometry x="90" y="148" width="120" height="30" as="geometry" />
        </mxCell>
        <mxCell id="fZJgPTSE8Sw2T9mLNg8I-38" value="check out" style="text;html=1;align=center;verticalAlign=middle;resizable=0;points=[];autosize=1;strokeColor=none;fillColor=none;" vertex="1" parent="1">
          <mxGeometry x="185" y="578" width="70" height="30" as="geometry" />
        </mxCell>
        <mxCell id="fZJgPTSE8Sw2T9mLNg8I-39" value="order details" style="text;html=1;align=center;verticalAlign=middle;resizable=0;points=[];autosize=1;strokeColor=none;fillColor=none;" vertex="1" parent="1">
          <mxGeometry x="605" y="518" width="90" height="30" as="geometry" />
        </mxCell>
        <mxCell id="fZJgPTSE8Sw2T9mLNg8I-40" value="detail book" style="text;html=1;align=center;verticalAlign=middle;resizable=0;points=[];autosize=1;strokeColor=none;fillColor=none;" vertex="1" parent="1">
          <mxGeometry x="580" y="458" width="80" height="30" as="geometry" />
        </mxCell>
        <mxCell id="fZJgPTSE8Sw2T9mLNg8I-41" value="data order" style="text;html=1;align=center;verticalAlign=middle;resizable=0;points=[];autosize=1;strokeColor=none;fillColor=none;" vertex="1" parent="1">
          <mxGeometry x="550" y="288" width="80" height="30" as="geometry" />
        </mxCell>
        <mxCell id="fZJgPTSE8Sw2T9mLNg8I-42" value="order information" style="text;html=1;align=center;verticalAlign=middle;resizable=0;points=[];autosize=1;strokeColor=none;fillColor=none;" vertex="1" parent="1">
          <mxGeometry x="555" y="218" width="110" height="30" as="geometry" />
        </mxCell>
        <mxCell id="fZJgPTSE8Sw2T9mLNg8I-43" value="product&lt;br&gt;information&lt;br&gt;purshase" style="text;html=1;align=center;verticalAlign=middle;resizable=0;points=[];autosize=1;strokeColor=none;fillColor=none;" vertex="1" parent="1">
          <mxGeometry x="420" y="163" width="80" height="60" as="geometry" />
        </mxCell>
        <mxCell id="fZJgPTSE8Sw2T9mLNg8I-45" style="edgeStyle=orthogonalEdgeStyle;rounded=0;orthogonalLoop=1;jettySize=auto;html=1;" edge="1" parent="1">
          <mxGeometry relative="1" as="geometry">
            <mxPoint x="240" y="226" as="sourcePoint" />
            <mxPoint x="335" y="248" as="targetPoint" />
          </mxGeometry>
        </mxCell>
        <mxCell id="fZJgPTSE8Sw2T9mLNg8I-44" value="login valid" style="text;html=1;align=center;verticalAlign=middle;resizable=0;points=[];autosize=1;strokeColor=none;fillColor=none;" vertex="1" parent="1">
          <mxGeometry x="220" y="193" width="80" height="30" as="geometry" />
        </mxCell>
        <mxCell id="fZJgPTSE8Sw2T9mLNg8I-46" value="ordering data" style="text;html=1;align=center;verticalAlign=middle;resizable=0;points=[];autosize=1;strokeColor=none;fillColor=none;" vertex="1" parent="1">
          <mxGeometry x="135" y="248" width="90" height="30" as="geometry" />
        </mxCell>
        <mxCell id="fZJgPTSE8Sw2T9mLNg8I-47" value="ordering information" style="text;html=1;align=center;verticalAlign=middle;resizable=0;points=[];autosize=1;strokeColor=none;fillColor=none;" vertex="1" parent="1">
          <mxGeometry x="215" y="298" width="130" height="30" as="geometry" />
        </mxCell>
        <mxCell id="fZJgPTSE8Sw2T9mLNg8I-48" value="delivery order" style="text;html=1;align=center;verticalAlign=middle;resizable=0;points=[];autosize=1;strokeColor=none;fillColor=none;" vertex="1" parent="1">
          <mxGeometry x="80" y="498" width="100" height="30" as="geometry" />
        </mxCell>
        <mxCell id="fZJgPTSE8Sw2T9mLNg8I-49" value="payment method" style="text;html=1;align=center;verticalAlign=middle;resizable=0;points=[];autosize=1;strokeColor=none;fillColor=none;" vertex="1" parent="1">
          <mxGeometry x="355" y="448" width="110" height="30" as="geometry" />
        </mxCell>
        <mxCell id="fZJgPTSE8Sw2T9mLNg8I-50" value="payment status" style="text;html=1;align=center;verticalAlign=middle;resizable=0;points=[];autosize=1;strokeColor=none;fillColor=none;" vertex="1" parent="1">
          <mxGeometry x="330" y="398" width="100" height="30" as="geometry" />
        </mxCell>
        <mxCell id="fZJgPTSE8Sw2T9mLNg8I-51" value="payment data" style="text;html=1;align=center;verticalAlign=middle;resizable=0;points=[];autosize=1;strokeColor=none;fillColor=none;" vertex="1" parent="1">
          <mxGeometry x="380" y="338" width="100" height="30" as="geometry" />
        </mxCell>
        <mxCell id="fZJgPTSE8Sw2T9mLNg8I-52" value="login valid" style="text;html=1;align=center;verticalAlign=middle;resizable=0;points=[];autosize=1;strokeColor=none;fillColor=none;" vertex="1" parent="1">
          <mxGeometry x="530" y="318" width="80" height="30" as="geometry" />
        </mxCell>
        <mxCell id="fZJgPTSE8Sw2T9mLNg8I-53" style="edgeStyle=orthogonalEdgeStyle;rounded=0;orthogonalLoop=1;jettySize=auto;html=1;entryX=0.833;entryY=0.25;entryDx=0;entryDy=0;entryPerimeter=0;" edge="1" parent="1" source="fZJgPTSE8Sw2T9mLNg8I-52" target="fZJgPTSE8Sw2T9mLNg8I-8">
          <mxGeometry relative="1" as="geometry" />
        </mxCell>
        <mxCell id="fZJgPTSE8Sw2T9mLNg8I-54" value="order information check out" style="text;html=1;align=center;verticalAlign=middle;resizable=0;points=[];autosize=1;strokeColor=none;fillColor=none;" vertex="1" parent="1">
          <mxGeometry x="255" y="528" width="170" height="30" as="geometry" />
        </mxCell>
      </root>
    </mxGraphModel>
  </diagram>
</mxfile>
